<?xml version="1.0" encoding="UTF-8"?><svg id="Layer_1" xmlns="http://www.w3.org/2000/svg" viewBox="0 0 137.11 169.71"><defs><style>.cls-1{fill:#d8d8d8;}.cls-2{fill:#3b3b3b;}.cls-3{fill:#181818;}.cls-4{fill:#252525;}.cls-5{fill:#bdbdbd;}.cls-6{fill:#6f6f6f;}.cls-7{fill:#b4b4b4;}.cls-8{fill:#333;}.cls-9{fill:#313131;}.cls-10{fill:#575757;}.cls-11{fill:#2b2b2b;}.cls-12{fill:#434343;}.cls-13{fill:#a9a9a9;}.cls-14{fill:#636363;}.cls-15{fill:#747474;}.cls-16{fill:#b9b9b9;}.cls-17{fill:#3d3d3d;}.cls-18{fill:#191919;}.cls-19{fill:#1f1f1f;}.cls-20{fill:#262626;}.cls-21{fill:#1c1c1c;}.cls-22{fill:#ccc;}.cls-23{fill:#0d0d0d;}.cls-24{fill:#dfdfdf;}.cls-25{fill:#c4c4c4;}.cls-26{fill:#ddd;}.cls-27{fill:#3c3c3c;}.cls-28{fill:#cdcdcd;}.cls-29{fill:#bababa;}.cls-30{fill:#a0a0a0;}.cls-31{fill:#cecece;}.cls-32{fill:#222;}.cls-33{fill:#d3d3d3;}.cls-34{fill:#adadad;}.cls-35{fill:#1a1a1a;}.cls-36{fill:#202020;}.cls-37{fill:#242424;}.cls-38{fill:#373737;}.cls-39{fill:#2f2f2f;}.cls-40{fill:#404040;}.cls-41{fill:#525252;}.cls-42{fill:#e9e9e9;}.cls-43{fill:#8e8e8e;}.cls-44{fill:#dbdbdb;}.cls-45{fill:#dcdcdc;}.cls-46{fill:#353535;}.cls-47{fill:#c8c8c8;}.cls-48{fill:#e3e3e3;}.cls-49{fill:#d2d2d2;}.cls-50{fill:#2e2e2e;}.cls-51{fill:#2a2a2a;}.cls-52{fill:#212121;}.cls-53{fill:#6e6e6e;}.cls-54{stroke:#fff;stroke-miterlimit:10;stroke-width:7px;}.cls-54,.cls-55{fill:#0c0c0c;}.cls-56{fill:#d7d7d7;}.cls-57{fill:#e8e8e8;}.cls-58{fill:#2d2d2d;}.cls-59{fill:#bfbfbf;}.cls-60{fill:#161616;}.cls-61{fill:#171717;}.cls-62{fill:#535353;}</style></defs><path class="cls-54" d="M3.59,129.83c.36-2.53,5.05-5.57,6.23-7.97C.26,101.33,1.48,77.29,13.94,58.31c10.06-15.32,26-25.57,44.11-28.67,1.42-8.41,5.25-16.64,10.11-23.6,5.02,6.94,8.32,15.16,10.32,23.52,7.82,1.32,15.43,3.89,22.32,7.79,29.89,16.94,41.33,54.31,26.03,85.27,1.93,2.09,4.11,4.06,5.74,6.38.5,4.47.48,8.97.36,13.47-.3,1.02-3.6.71-4.57.68-5.37-.16-10.75-.73-16.16-.75-2.66,1.73-4.89,4.2-7.84,5.47-.21.3,1.71,2.48,1.96,3.13.55,1.4.44,11.11.28,13.17-.13,1.73-.43,2.08-2.26,1.75l-21.29-7.35c-.97-.09-1,1.09-1.48,1.72-1.67,2.2-4.24,2.83-6.83,1.88l-2.61-2.36c-2.16,3.78-4.34,4.86-7.45,1.22-.42-.49-.63-1.63-1.16-1.06-.78.83-1.43,2.13-2.71,2.46-3.37.88-6.05-1.05-7.1-4.12l-23.33,7.68c-.54-.2-.62-.56-.69-1.07-.2-1.49-.12-13.38.24-14.22.22-.5,2.36-2.8,2.14-3.09l-7.23-5.22c-4.91.23-9.78.35-14.69.48-.85.02-6.58.83-6.58-.36v-12.69ZM52.86,121.99c-2.79,12.1-11.46,21.07-18.91,30.48v8.34c1.24-.15,2.34-.83,3.48-1.24,2.17-.79,4.38-1.46,6.53-2.3,1.76-.68,5.75-1.87,6.53-3.42,1.69-3.34,2.6-9.19,3.61-12.94.77,1.47-.3,8.4.5,9.21.3.31,1.19.4,1.65.47,1.49.21,2.65.14,4.07.03.96-.07,2,.07,2.88-.48.38-1.69.23-3.42.34-5.13.03-.46-.06-.93.51-1.11.18,1.37.49,7.1.97,7.8s3.89.38,4.75.16c.56-.15.55.12,1-.5.15-.21.17-.24.25-.5.36-1.16.16-2.32.25-3.48s.22-2.05.25-3.23c.64-.58-.15-1.9.5-2.49.1,2.89.27,5.81.53,8.68,1.36.37,2.8.32,4.2.28,1.59-.05,2.69-.24,4.23-.5.16-.03.39.04.5,0,.25-.11.21-.1.25-.36.38-2.08-.5-5.01.24-7.1.82,4.03,2.1,8.39,3.8,12.13,5.33,2.3,10.75,4.5,16.36,6.04v-8.34c0-.53-5.84-7.11-6.71-8.22-2.65-3.39-5.66-6.85-7.72-10.57-1.38-2.48-3.16-6.02-3.98-8.71-.45-1.45-.92-3.69-1.24-5.23-1.53-7.14-1.83-14.48-2.24-21.77l-2.49-29.74c.16-5.46-.77-12.93-1.25-18.54-1.02-11.99-1.75-21.43-6.97-32.48-.2-.42-1.12-2.73-1.37-2.73-4.63,7.94-6.97,17.12-7.84,26.25-1.75,18.38-3.09,36.84-4.73,55.24-.76,8.54-.81,17.64-2.74,26ZM94.42,46.85c2.07,1.09,3.98,2.51,5.97,3.73.64.84,1.75,1.34,2.49,1.99,1.4,1.24,2.93,2.64,4.23,3.98,2.28,2.35,4.42,4.97,6.22,7.71,1.04,1.58,2.13,3.54,2.99,5.23,1.31,2.61,2.64,5.67,3.48,8.46,1.24,4.09,1.99,8.49,2.25,12.76.9,1.28,1.48.72,2.6.92.71.13.77,1,1.62.63.64-.28.68-1.27,1-1.5s.79-.08,1.38-.61c.34-.3.86-1.14.87-1.62.04-1.81-.7-5.26-1.08-7.16-.52-2.59-1.32-4.94-2.17-7.41-1-2.9-1.87-4.76-3.23-7.47-1.58-3.13-3.16-5.88-5.23-8.71-1.27-1.74-2.34-2.91-3.73-4.48-1.91-2.13-3.25-3.58-5.47-5.47-.83-.71-1.97-2.13-2.99-2.49-1.58-1.02-4.26-3.5-5.97-3.98-2.39-1.35-8.19-4.75-10.83-4.5-.78.07-1.04.7-1.24.71-.33.02-.84-.85-1.39-.08-.44.61-.21,2.62-.22,3.51,0,.66-.46,1.18-.03,1.74.71.94,6.89,3.25,8.48,4.09ZM97.15,49.58c-1.82-1.15-7.13-4.42-9.05-4.21-1.72.18-1.07.69-1.46,1.54-.69,1.51-2.14,3.03-.94,4.73,2.56,1.19,5.08,2.41,7.48,3.91,1.34.84,2.74,1.77,3.98,2.74,1.08.84,2.24,1.79,3.23,2.74,2.3,2.19,5.29,5.77,6.97,8.46,1,1.6,1.96,3.51,2.74,5.23,1.15,2.54,2.08,5.25,2.74,7.96.25,1.04.53,2.09.71,3.15.3,1.81.33,5.77,1.17,7.04,1.44,2.17,2.96.52,4.52.07,1.15-.33,2.02.4,2.07-1.68.07-3.19-.95-7.7-1.75-10.81-.87-3.38-1.79-5.61-3.23-8.71-1.08-2.31-1.9-3.82-3.23-5.97-2.25-3.63-4.21-6.19-7.22-9.21-1.8-1.81-3.02-2.73-4.98-4.23-1.34-1.03-2.22-1.78-3.73-2.74ZM90.19,54.81c-.62-.33-1.15-.72-1.82-1.04-3.31-1.53-6.78-3.31-7.14,1.9-.05.66-.12,2.31.23,2.77.41.52,4.59,1.83,5.5,2.34,1.06,1.1,2.83,1.65,3.98,2.49s3.14,2.66,4.23,3.73c1.87,1.84,4.08,4.5,5.47,6.72s2.59,4.79,3.48,7.22c.56,1.52,1.16,3.14,1.49,4.73.29,1.38.65,7.19,1.35,7.74.75.58,2.52-.34,3.6-.39.85-.04,1.98.65,2.63-.89.41-.97-.4-5.19-.62-6.47-.47-2.79-1.02-4.59-1.99-7.22-.97-2.62-1.84-4.54-3.23-6.97-2.02-3.52-4.31-6.62-7.22-9.46-1.47-1.44-3.06-2.77-4.73-3.98s-3.4-2.27-5.23-3.23ZM87.45,62.27c-1.91-1.08-3.86-2.08-5.97-2.74.19.83.07,4.52.3,4.92.1.18,3.1,1.45,3.68,1.79.67.4,1.58,1.03,2.24,1.49,1.17.82,2.72,2.01,3.73,2.99,1.83,1.76,3.37,3.83,4.73,5.97.9,1.41,1.84,2.94,2.49,4.48.44,1.04.95,2.63,1.24,3.73.37,1.37.69,2.97.97,4.38.17.86-.15,2.88,1.19,3.29.52.16,2.55.15,2.96-.18,1.12-.88-.31-6.4-.65-7.74-.39-1.58-.7-2.3-1.24-3.73-.91-2.4-1.42-3.52-2.74-5.72-1.78-2.98-3.71-5.56-6.22-7.96-1.28-1.22-2.33-1.97-3.73-2.99-1.05-.76-1.84-1.34-2.99-1.99ZM45.65,129.46l.12,3.48c4.56-5.6,6.23-13.29,7.31-20.31,1.05-6.87,1.7-14.42,2.27-21.37.45-5.42,1.84-17.24.37-22.03-.1-.32-.04-.6-.49-.49-1.1.45-2.66,5.07-3.12,6.34-1.61,4.44-2.63,9.07-4.11,13.55-13.31,13.73-26.54,27.54-39.68,41.44-.11.18-.49,1.13-.49,1.25v7.59c11.65-.79,23.3-1.33,34.94-2.26.74-.24,2.27-2.33,2.5-2.98.25-.72.08-1.29.14-1.98.05-.73-.23-1.68.25-2.24ZM109.85,137.67c1.32.45,3.07.27,4.48.25l14.18,1c-.11-2.2.14-4.53,0-6.72-.02-.35.05-.71-.05-1.06-2.79-3.61-6.27-6.8-9.4-10.14-8.92-9.51-17.99-18.95-26.75-28.62-1.25-1.38-4.07-3.69-4.68-5.27-1.73-4.51-2.52-9.73-4.47-14.44-.56-1.37-1.09-3.45-2.67-3.92-.48,2.42-.64,4.88-.76,7.35,2.51,17.82-.32,42.17,10.51,57.42.48.68,2.03,2.85,2.68,3.05,5.63.39,11.3,1.04,16.93,1.11ZM16.53,102.83c.55,3.2,1.25,6.49,2.61,9.45.75-1.01,5.08-4.86,5.31-5.65.28-.95-1.1-3.81-.95-5.05-.18-1.78-.61-3.57-.74-5.35-.06-.83.18-3.7-.11-4.12-.44-.63-2.98-.03-3.75.04-.9.07-1.28-.56-2.34.37-1.11.98-.84,3.74-.76,5.2.09,1.68.47,3.5.74,5.1ZM35.89,95.07c.12-.2.12-1.97.05-2.31-.23-1.3-2.89-.95-3.66-.3-1.08.92-.47,4.99-.32,6.4,1.18-1.02,2.18-2.23,3.24-3.36.21-.22.63-.33.69-.42ZM25.24,105.82c.87-.98,5.68-5.37,5.92-6.15.15-.49-.11-3.23-.2-3.93-.26-2.13.12-3.26-2.54-3.06-.91.07-1.96.8-2.62.9-.71.11-1.67-.64-2,.46s.05,4.6.2,5.92c.22,1.98.65,3.95,1.24,5.85ZM9.07,107.06c.58,2.67,1.07,4.62,1.99,7.22.22.61,1.43,4.48,1.87,4.47.98-1.35,4.9-4.27,5.31-5.65.26-.9-.89-2.93-1.2-4.05-.65-2.34-1.15-4.8-1.49-7.22-.16-1.11-.37-2.25-.49-3.36-.11-1.01.09-4.31-.47-5-1.05-1.29-4.82.37-6.01,1.01-.09,1.03-1,2.08-1.01,2.99-.03,3.05.87,6.62,1.52,9.59ZM36.69,141.65c-1.92-.11-3.82.14-5.72.37.66.42,3.23,2.44,3.82,2.33.25-.05,2.17-2.45,1.9-2.7Z"/><path class="cls-55" d="M3.59,129.83c.36-2.53,5.05-5.57,6.23-7.97C.26,101.33,1.48,77.29,13.94,58.31c10.06-15.32,26-25.57,44.11-28.67,1.42-8.41,5.25-16.64,10.11-23.6,5.02,6.94,8.32,15.16,10.32,23.52,7.82,1.32,15.43,3.89,22.32,7.79,29.89,16.94,41.33,54.31,26.03,85.27,1.93,2.09,4.11,4.06,5.74,6.38.5,4.47.48,8.97.36,13.47-.3,1.02-3.6.71-4.57.68-5.37-.16-10.75-.73-16.16-.75-2.66,1.73-4.89,4.2-7.84,5.47-.21.3,1.71,2.48,1.96,3.13.55,1.4.44,11.11.28,13.17-.13,1.73-.43,2.08-2.26,1.75l-21.29-7.35c-.97-.09-1,1.09-1.48,1.72-1.67,2.2-4.24,2.83-6.83,1.88l-2.61-2.36c-2.16,3.78-4.34,4.86-7.45,1.22-.42-.49-.63-1.63-1.16-1.06-.78.83-1.43,2.13-2.71,2.46-3.37.88-6.05-1.05-7.1-4.12l-23.33,7.68c-.54-.2-.62-.56-.69-1.07-.2-1.49-.12-13.38.24-14.22.22-.5,2.36-2.8,2.14-3.09l-7.23-5.22c-4.91.23-9.78.35-14.69.48-.85.02-6.58.83-6.58-.36v-12.69ZM52.86,121.99c-2.79,12.1-11.46,21.07-18.91,30.48v8.34c1.24-.15,2.34-.83,3.48-1.24,2.17-.79,4.38-1.46,6.53-2.3,1.76-.68,5.75-1.87,6.53-3.42,1.69-3.34,2.6-9.19,3.61-12.94.77,1.47-.3,8.4.5,9.21.3.31,1.19.4,1.65.47,1.49.21,2.65.14,4.07.03.96-.07,2,.07,2.88-.48.38-1.69.23-3.42.34-5.13.03-.46-.06-.93.51-1.11.18,1.37.49,7.1.97,7.8s3.89.38,4.75.16c.56-.15.55.12,1-.5.15-.21.17-.24.25-.5.36-1.16.16-2.32.25-3.48s.22-2.05.25-3.23c.64-.58-.15-1.9.5-2.49.1,2.89.27,5.81.53,8.68,1.36.37,2.8.32,4.2.28,1.59-.05,2.69-.24,4.23-.5.16-.03.39.04.5,0,.25-.11.21-.1.25-.36.38-2.08-.5-5.01.24-7.1.82,4.03,2.1,8.39,3.8,12.13,5.33,2.3,10.75,4.5,16.36,6.04v-8.34c0-.53-5.84-7.11-6.71-8.22-2.65-3.39-5.66-6.85-7.72-10.57-1.38-2.48-3.16-6.02-3.98-8.71-.45-1.45-.92-3.69-1.24-5.23-1.53-7.14-1.83-14.48-2.24-21.77l-2.49-29.74c.16-5.46-.77-12.93-1.25-18.54-1.02-11.99-1.75-21.43-6.97-32.48-.2-.42-1.12-2.73-1.37-2.73-4.63,7.94-6.97,17.12-7.84,26.25-1.75,18.38-3.09,36.84-4.73,55.24-.76,8.54-.81,17.64-2.74,26ZM94.42,46.85c2.07,1.09,3.98,2.51,5.97,3.73.64.84,1.75,1.34,2.49,1.99,1.4,1.24,2.93,2.64,4.23,3.98,2.28,2.35,4.42,4.97,6.22,7.71,1.04,1.58,2.13,3.54,2.99,5.23,1.31,2.61,2.64,5.67,3.48,8.46,1.24,4.09,1.99,8.49,2.25,12.76.9,1.28,1.48.72,2.6.92.71.13.77,1,1.62.63.64-.28.68-1.27,1-1.5s.79-.08,1.38-.61c.34-.3.86-1.14.87-1.62.04-1.81-.7-5.26-1.08-7.16-.52-2.59-1.32-4.94-2.17-7.41-1-2.9-1.87-4.76-3.23-7.47-1.58-3.13-3.16-5.88-5.23-8.71-1.27-1.74-2.34-2.91-3.73-4.48-1.91-2.13-3.25-3.58-5.47-5.47-.83-.71-1.97-2.13-2.99-2.49-1.58-1.02-4.26-3.5-5.97-3.98-2.39-1.35-8.19-4.75-10.83-4.5-.78.07-1.04.7-1.24.71-.33.02-.84-.85-1.39-.08-.44.61-.21,2.62-.22,3.51,0,.66-.46,1.18-.03,1.74.71.94,6.89,3.25,8.48,4.09ZM97.15,49.58c-1.82-1.15-7.13-4.42-9.05-4.21-1.72.18-1.07.69-1.46,1.54-.69,1.51-2.14,3.03-.94,4.73,2.56,1.19,5.08,2.41,7.48,3.91,1.34.84,2.74,1.77,3.98,2.74,1.08.84,2.24,1.79,3.23,2.74,2.3,2.19,5.29,5.77,6.97,8.46,1,1.6,1.96,3.51,2.74,5.23,1.15,2.54,2.08,5.25,2.74,7.96.25,1.04.53,2.09.71,3.15.3,1.81.33,5.77,1.17,7.04,1.44,2.17,2.96.52,4.52.07,1.15-.33,2.02.4,2.07-1.68.07-3.19-.95-7.7-1.75-10.81-.87-3.38-1.79-5.61-3.23-8.71-1.08-2.31-1.9-3.82-3.23-5.97-2.25-3.63-4.21-6.19-7.22-9.21-1.8-1.81-3.02-2.73-4.98-4.23-1.34-1.03-2.22-1.78-3.73-2.74ZM90.19,54.81c-.62-.33-1.15-.72-1.82-1.04-3.31-1.53-6.78-3.31-7.14,1.9-.05.66-.12,2.31.23,2.77.41.52,4.59,1.83,5.5,2.34,1.06,1.1,2.83,1.65,3.98,2.49s3.14,2.66,4.23,3.73c1.87,1.84,4.08,4.5,5.47,6.72s2.59,4.79,3.48,7.22c.56,1.52,1.16,3.14,1.49,4.73.29,1.38.65,7.19,1.35,7.74.75.58,2.52-.34,3.6-.39.85-.04,1.98.65,2.63-.89.41-.97-.4-5.19-.62-6.47-.47-2.79-1.02-4.59-1.99-7.22-.97-2.62-1.84-4.54-3.23-6.97-2.02-3.52-4.31-6.62-7.22-9.46-1.47-1.44-3.06-2.77-4.73-3.98s-3.4-2.27-5.23-3.23ZM87.45,62.27c-1.91-1.08-3.86-2.08-5.97-2.74.19.83.07,4.52.3,4.92.1.18,3.1,1.45,3.68,1.79.67.4,1.58,1.03,2.24,1.49,1.17.82,2.72,2.01,3.73,2.99,1.83,1.76,3.37,3.83,4.73,5.97.9,1.41,1.84,2.94,2.49,4.48.44,1.04.95,2.63,1.24,3.73.37,1.37.69,2.97.97,4.38.17.86-.15,2.88,1.19,3.29.52.16,2.55.15,2.96-.18,1.12-.88-.31-6.4-.65-7.74-.39-1.58-.7-2.3-1.24-3.73-.91-2.4-1.42-3.52-2.74-5.72-1.78-2.98-3.71-5.56-6.22-7.96-1.28-1.22-2.33-1.97-3.73-2.99-1.05-.76-1.84-1.34-2.99-1.99ZM45.65,129.46l.12,3.48c4.56-5.6,6.23-13.29,7.31-20.31,1.05-6.87,1.7-14.42,2.27-21.37.45-5.42,1.84-17.24.37-22.03-.1-.32-.04-.6-.49-.49-1.1.45-2.66,5.07-3.12,6.34-1.61,4.44-2.63,9.07-4.11,13.55-13.31,13.73-26.54,27.54-39.68,41.44-.11.18-.49,1.13-.49,1.25v7.59c11.65-.79,23.3-1.33,34.94-2.26.74-.24,2.27-2.33,2.5-2.98.25-.72.08-1.29.14-1.98.05-.73-.23-1.68.25-2.24ZM109.85,137.67c1.32.45,3.07.27,4.48.25l14.18,1c-.11-2.2.14-4.53,0-6.72-.02-.35.05-.71-.05-1.06-2.79-3.61-6.27-6.8-9.4-10.14-8.92-9.51-17.99-18.95-26.75-28.62-1.25-1.38-4.07-3.69-4.68-5.27-1.73-4.51-2.52-9.73-4.47-14.44-.56-1.37-1.09-3.45-2.67-3.92-.48,2.42-.64,4.88-.76,7.35,2.51,17.82-.32,42.17,10.51,57.42.48.68,2.03,2.85,2.68,3.05,5.63.39,11.3,1.04,16.93,1.11ZM16.53,102.83c.55,3.2,1.25,6.49,2.61,9.45.75-1.01,5.08-4.86,5.31-5.65.28-.95-1.1-3.81-.95-5.05-.18-1.78-.61-3.57-.74-5.35-.06-.83.18-3.7-.11-4.12-.44-.63-2.98-.03-3.75.04-.9.07-1.28-.56-2.34.37-1.11.98-.84,3.74-.76,5.2.09,1.68.47,3.5.74,5.1ZM35.89,95.07c.12-.2.12-1.97.05-2.31-.23-1.3-2.89-.95-3.66-.3-1.08.92-.47,4.99-.32,6.4,1.18-1.02,2.18-2.23,3.24-3.36.21-.22.63-.33.69-.42ZM25.24,105.82c.87-.98,5.68-5.37,5.92-6.15.15-.49-.11-3.23-.2-3.93-.26-2.13.12-3.26-2.54-3.06-.91.07-1.96.8-2.62.9-.71.11-1.67-.64-2,.46s.05,4.6.2,5.92c.22,1.98.65,3.95,1.24,5.85ZM9.07,107.06c.58,2.67,1.07,4.62,1.99,7.22.22.61,1.43,4.48,1.87,4.47.98-1.35,4.9-4.27,5.31-5.65.26-.9-.89-2.93-1.2-4.05-.65-2.34-1.15-4.8-1.49-7.22-.16-1.11-.37-2.25-.49-3.36-.11-1.01.09-4.31-.47-5-1.05-1.29-4.82.37-6.01,1.01-.09,1.03-1,2.08-1.01,2.99-.03,3.05.87,6.62,1.52,9.59ZM36.69,141.65c-1.92-.11-3.82.14-5.72.37.66.42,3.23,2.44,3.82,2.33.25-.05,2.17-2.45,1.9-2.7Z"/><path class="cls-57" d="M45.4,131.7c-.05.69.11,1.27-.14,1.98-.22.65-1.76,2.74-2.5,2.98-11.64.93-23.29,1.47-34.94,2.26v-7.59c0-.13.38-1.07.49-1.25,13.14-13.89,26.37-27.7,39.68-41.44,1.49-4.48,2.5-9.11,4.11-13.55.46-1.27,2.02-5.88,3.12-6.34.45-.11.39.17.49.49,1.47,4.78.07,16.61-.37,22.03-.57,6.94-1.22,14.5-2.27,21.37-1.07,7.02-2.75,14.72-7.31,20.31l-.12-3.48c.06-.36-.59-.27-.87-.25-.9.06-2.25.25-3.11.5-3.88-.15-8.16,1.06-11.94,1.49-3.38.39-6.82.65-10.2,1-2.51.26-5.77.78-8.21.75l1.74-2.99c-.72.59-2.17,2.09-2.24,2.99-.01.16,0,.33,0,.5,2.93-.16,5.88-.47,8.81-.77.21-.02.35-.22.4-.23,3.3-.34,6.64-.61,9.95-1,4.15-.48,8.28-1.12,12.44-1.49.52-.05,2.51-.48,2.74-.25.15.15-.29,1.69.25,1.99Z"/><path class="cls-42" d="M69.53,17.23c-.55,1.1-.02,2.05.01,3.1.19,5.71.11,11.46.24,17.17,7.23,6.99,6.53,28.44.38,35.47-.49.56-1.34.76-1.38,1.49,0,16.58-.55,33.19-.5,49.77-.41.26-.25.94-.25,1.37-.06,5.07-.02,10.87.26,15.93.1,1.85.75,4.29.76,5.98.01,1.21-.52,2.67-.29,3.96.06.31.89-.01,1.01.39-.86.23-4.26.55-4.75-.16s-.79-6.44-.97-7.8c-.08-.59-.15-1.16-.25-1.74-.12-1.77-.06-3.86-.25-5.6-.07-.66-.39-1.16-.48-1.76-.22-1.38.32-2.52-1.14-3.58-.09,0-.93,1.32-.98,1.5-.47,1.49-.59,7.21-.65,9.06-.08,2.61.08,5.24.01,7.85-.05.3.04.68,0,1-1.43.11-2.58.18-4.07-.03-.46-.06-1.34-.16-1.65-.47-.23-3.08.3-6.57.01-9.6-.02-.23.05-.58-.26-.61h-.25c.89-3.41.13-10.57-.02-14.31-.06-1.45.78-2.71-1.22-3.6,1.93-8.36,1.98-17.46,2.74-26,1.63-18.4,2.98-36.86,4.73-55.24.87-9.13,3.2-18.31,7.84-26.25.25,0,1.17,2.31,1.37,2.73ZM67.48,38.2c-3.4.63-4.78,7.92-5.13,10.79-.81,6.68-.17,13.53,2.27,19.81,2.07,5.31,4.31,6.57,6.95.6,3.22-7.27,4.06-22.29-.34-29.11-.97-1.5-1.81-2.46-3.75-2.1Z"/><path class="cls-57" d="M119.05,121c-.1.63-.73.21-.74.25-.43.84.42,1.38.76,1.86.18.27.2.77.27.83.35.29,1.63-.54,1.71,1.65l-1.25.38c-.79-.82-2-2.02-2.86-2.74-.28-.24-.4-.6-.87-.49,1.09,1.3,2.33,2.48,3.48,3.73s2.25,2.41,3.23,3.73c-.07-.04-.46.02-.73-.13s-.79-.86-.89-.86c-.22,0-.79,1.53-1.45,1.45-.27-.03-.58-.41-.79-.4-.92.06-2.11,2.26.12,1.68l-.99.25c-1.38-.15-3.19-.44-4.48-.5,1.2-.58-.22-1.77-.12-2.75-.16-.28-.75,0-1.12-.08-.95-.23-2.83-1.23-3,.49-.1,1.01,2.21,1.63.76,1.85-.92.07-1.83-.13-2.74-.25-3.09-.41-7.2-1.31-10.2-1.24l-4.85-.74h-1.36s5.22.99,5.22.99c3.46.54,6.99.74,10.45,1.24,1.44.21,3.07.43,4.48.75.32.07.72.45,1.24.25-.66.98.67,1.49,1.24,2.37.17.26.56.9.63,1.14.08.3-.06,1.89-.12,1.96-.15.15-3.63,0-4.23,0-5.64-.06-11.31-.72-16.93-1.11-.65-.2-2.19-2.36-2.68-3.05-10.82-15.25-7.99-39.6-10.51-57.42.12-2.47.28-4.93.76-7.35,1.58.47,2.11,2.55,2.67,3.92,1.94,4.72,2.74,9.94,4.47,14.44.61,1.59,3.43,3.89,4.68,5.27,8.76,9.67,17.83,19.1,26.75,28.62ZM88.45,93.75c-.1-1.42,0-3.03,0-4.48,0-.12-.31-.77-.5-.62v3.61c0,.1.26,1.78.3,1.94.05.2.22.42.44.42.15-.37-.23-.69-.25-.87ZM93.67,99.35l-4.35-4.72c-.56.46-.31.35,0,.75.73.93,2.56,2.7,3.48,3.48.28.24.4.6.87.49ZM101.63,107.81c2.05,2.09,3.99,4.31,6.22,6.22.11-.47-.26-.59-.49-.87-1.55-1.83-3.75-3.81-5.47-5.6-2.29-2.37-4.86-5.38-7.34-7.47-.28-.24-.41-.6-.87-.49,2.61,2.77,5.3,5.49,7.96,8.21ZM109.76,115.61c-.29-.28-.78-.45-1.03-.83-.18-.04-.17.26-.12.37.48,1.08,4.28,3.94,5.22,5.1.11-.47-.26-.59-.49-.87-.93-1.1-2.53-2.75-3.57-3.77Z"/><path class="cls-16" d="M68.79,74.47l.25,1.99c.89.14.29-1.08.77-1.84,1.11-1.75,2.08.64,2.14,1.75.04.67-.47,1.43-.44,2.2.11,2.35.37,4.51.21,6.97-.23,3.5-.2,6.92-.12,10.43.02.75.46,1.58.12,2.71-.1.35-.59.55-.67.84-.16.6.4.72.59,1.09.15.31.08.86.16.95.12.13,1.12-.07,1.58.54.37.49.22,1.3.45,1.66.41.65.49.29,1.08,1.56.81,1.73,2.57-1.15,3.35.86.19.49-.09.82.02,1.19.16.56.59.96.69,1.57.12.78-.11,1.64.07,2.42.14.63.83,1.01.89,1.32.1.6-.73,1.62.8,1.84.17.92.3,2.13.5,2.99l-.7.31.45,3.92c-.02.99-.02,2,0,2.99.03,1.31.22,2.6.25,3.98.01.58,0,1.16,0,1.74-.3-.68-.34-1.49-.5-2.24-.13-.62-.5-1.5-.52-1.87-.05-.74.53-1.36.47-1.7s-.69-.72-.71-1.31c-.02-.54.45-.84.45-.98,0-.2-.96-.81-.93-1.49.02-.38.5-.63.48-1.21-.01-.72-.64-1.84-.68-2.58-.05-.86.59-2.87-1.19-3.06s-2.98,4.31-2.85,5.73c-1.61,3.86-2.08,9.79-3.06,13.99-.08.36-.42.93.07,1.19-.5,2.74-.34,4.03-.25,6.72-.64.58.15,1.9-.5,2.49.02-.94.04-1.92,0-2.86-.01-.3.19-.93-.25-.87-.49,1.25-.23,2.33-.31,3.53-.09,1.29-.95,2.18.31,3.44-.09,1.16.11,2.33-.25,3.48l-.62-2.23c-.92.56-.42,1.77-1.12,2.48-.09-.26-.05-2.69.01-3.1.07-.45.56-.74.5-1.24-.01-.12-.76-.03-.51-.98.05-.17.5-.16.51-.29.06-.49-.42-.81-.5-1.25-.26-1.4.67-4.28,1.48-5.48.17-.25.69-.27.76-.53.17-.68.11-3.93.1-4.93,0-1.55-.44-3.04-.11-4.6-1.19.83-2.1.07-2.13,1.97l-1.1,1.51c0-2.65,0-5.31,0-7.96-.06-16.58.5-33.19.5-49.77Z"/><path class="cls-42" d="M80.98,124.73c.99-.12.59.04.77.58,1.38,4.11,2,9.75,6.69,11.36.21-.21-.72-1.68-.9-1.96-.38-.61-1.63-1.47.15-1.02,2.07,3.71,5.07,7.17,7.72,10.57.87,1.11,6.71,7.69,6.71,8.22v8.34c-5.61-1.54-11.03-3.74-16.36-6.04-1.7-3.74-2.98-8.09-3.8-12.13-.45-2.21-.44-3.5-.5-5.72s.03-4.57,0-6.85c0-.42.16-1.11-.25-1.37-.03-1.38-.22-2.67-.25-3.98Z"/><path class="cls-7" d="M77.75,68.25c-.01.41.01.83,0,1.24-3.14-2.88-2.53.19-3.15,2.2-.18.59-.74.9-.83,1.42-.2,1.08.49,1.81.48,2.7,0,.59-.37,1.4-.45,2.05-.05.39.26.76.18,1.16-.05.23-.62.68-.45.92.05.07.95.09,1.01.89.04.52-.98,2.24-1,2.72-.02.44.49.8.48,1.24,0,.41-.71,1.19-.69,2,.01.92.99,1.65.94,1.95-.04.25-.75.67-.87,1.14s.21.91.15,1.37c-.08.62-1.46,1.38-.53,2.53.2.24,1.65.81,1.71.89.16.21,0,1.11.44,1.2.31.06.71-.42,1.03-.45.09,0,1.75.39,1.82.46.1.1-.07.78.02,1.09.72,2.55-.35,3.4.05,5.43.19.96,1.17,2.05,1.33,2.66.71,2.78.82,6.65,1.35,9.47-1.54-.21-.7-1.24-.8-1.84-.05-.31-.74-.69-.89-1.32-.18-.78.06-1.64-.07-2.42-.1-.62-.53-1.02-.69-1.57-.11-.37.17-.7-.02-1.19-.78-2-2.54.88-3.35-.86-.6-1.28-.67-.92-1.08-1.56-.23-.36-.09-1.17-.45-1.66-.46-.61-1.45-.41-1.58-.54-.09-.09,0-.64-.16-.95-.19-.37-.75-.49-.59-1.09.08-.29.57-.49.67-.84.34-1.14-.11-1.97-.12-2.71-.08-3.51-.12-6.93.12-10.43.16-2.45-.1-4.62-.21-6.97-.04-.77.48-1.54.44-2.2-.06-1.11-1.03-3.5-2.14-1.75-.48.76.12,1.98-.77,1.84l-.25-1.99c.04-.73.88-.92,1.38-1.49,6.15-7.03,6.85-28.48-.38-35.47-.14-5.72-.05-11.46-.24-17.17-.03-1.05-.56-2-.01-3.1,5.21,11.05,5.95,20.48,6.97,32.48.48,5.61,1.4,13.08,1.25,18.54Z"/><path class="cls-1" d="M52.86,121.99c2,.89,1.17,2.15,1.22,3.6.15,3.75.91,10.9.02,14.31-.16.6-.71,1.1-.73,1.18-.19.59-.35,2.8-.83,3.24-.06.05-1.22.74-1.3.75-.29.02-.78-.7-1.37-.32-.79.5-.11,1.57-.46,2.02-.56.71-2.6.54-3.35,1.09-.33.24-.28.73-.55,1-.66.65-3.83,2.91-3.76,3.62.02.19.39.43.4.75.02.44-.55.88-.5,1.48.13,1.53,2.98.56,3.99,1.01-.25.36-2.47,1.31-2.62,1.3-.31-.03-.75-1.04-1.79-.74-1.59.46-.7,1.22-.92,1.56-.38.57-1.87.33-2.33.56-.06.03-1.17,1.02-.56,1.18-1.14.41-2.24,1.09-3.48,1.24v-8.34c7.46-9.41,16.12-18.38,18.91-30.48Z"/><path class="cls-34" d="M80.73,114.53c-.53-2.82-.64-6.68-1.35-9.47-.16-.61-1.14-1.71-1.33-2.66-.4-2.03.67-2.88-.05-5.43-.09-.31.08-.99-.02-1.09-.06-.07-1.72-.47-1.82-.46-.32.03-.72.51-1.03.45-.44-.09-.27-.99-.44-1.2-.06-.08-1.51-.64-1.71-.89-.92-1.15.45-1.9.53-2.53.06-.46-.28-.9-.15-1.37s.83-.89.87-1.14c.05-.3-.92-1.03-.94-1.95-.01-.81.69-1.58.69-2,0-.45-.49-.8-.48-1.24.02-.48,1.04-2.2,1-2.72-.06-.8-.96-.82-1.01-.89-.17-.24.4-.7.45-.92.09-.4-.23-.77-.18-1.16.08-.65.44-1.46.45-2.05.01-.88-.68-1.62-.48-2.7.1-.52.65-.82.83-1.42.62-2.01.01-5.09,3.15-2.2.01-.41,0-.83,0-1.24l2.49,29.74c.41,7.29.71,14.63,2.24,21.77l-.49.25c-.21-.85-.55-1.63-.75-2.49s-.32-2.06-.5-2.99Z"/><path class="cls-35" d="M126.27,73.97c.85,2.47,1.65,4.82,2.17,7.41.38,1.9,1.12,5.34,1.08,7.16,0,.48-.53,1.32-.87,1.62-.59.53-1.04.37-1.38.61s-.37,1.21-1,1.5c-.84.37-.9-.5-1.62-.63-1.13-.21-1.71.35-2.6-.92-.26-4.27-1.01-8.67-2.25-12.76,2.14-.82,5.3-1.86,6.47-3.98Z"/><path class="cls-57" d="M77,150.36c-.11.01-.22.13-.25.25-1.4.04-2.85.1-4.2-.28-.26-2.88-.43-5.79-.53-8.68-.09-2.69-.25-3.98.25-6.72.32-1.77.95-4.55,1.49-6.22.19-.57,1.73-3.64,2.12-3.73.63-.15.79,1.47.84,1.9.56,5.34-.02,11.05-.23,16.4l.51,7.08Z"/><path class="cls-26" d="M54.35,139.91c-.08.33-.16.67-.25,1-1.01,3.75-1.92,9.6-3.61,12.94-.78,1.55-4.77,2.73-6.53,3.42-2.15.84-4.36,1.52-6.53,2.3-.62-.16.5-1.15.56-1.18.46-.23,1.95.01,2.33-.56.22-.34-.67-1.1.92-1.56,1.04-.3,1.48.71,1.79.74.15.01,2.37-.95,2.62-1.3-1.01-.45-3.85.52-3.99-1.01-.05-.61.52-1.04.5-1.48-.02-.32-.38-.56-.4-.75-.07-.71,3.1-2.97,3.76-3.62.27-.27.23-.76.55-1,.75-.55,2.78-.37,3.35-1.09.35-.45-.33-1.52.46-2.02.59-.37,1.08.35,1.37.32.07,0,1.24-.69,1.3-.75.48-.44.64-2.65.83-3.24.02-.08.58-.58.73-1.18h.25Z"/><path class="cls-3" d="M112.83,82.68c.31.44.14.57.74.39,1.92-.57,4.45-1.42,5.97-2.63.81,3.12,1.83,7.63,1.75,10.81-.05,2.09-.92,1.35-2.07,1.68-1.56.45-3.08,2.1-4.52-.07-.84-1.26-.87-5.23-1.17-7.04-.18-1.06-.45-2.11-.71-3.15Z"/><path class="cls-2" d="M105.86,56.55c3,3.02,4.97,5.58,7.22,9.21.16.47-1.05.94-1.32,1.05-.59.23-1.22.17-1.76.47-.87.48-.99,2.17-2.64,2.21-1.68-2.69-4.67-6.27-6.97-8.46.21-.78.83-.11,1.19-.29.79-.4,1.43-1.68,2.03-2.33.49-.53,1.28-.78,1.59-1.09s-.07-.93.66-.76Z"/><path class="cls-17" d="M100.14,62.02c2.9,2.84,5.2,5.94,7.22,9.46-.72.96-1.93.79-2.73,1.13-.26.11-.53.53-1,.74-1,.43-1.97.08-2.99.37-1.39-2.21-3.61-4.88-5.47-6.72,1.29-1.91,2.5-4.55,4.98-4.98Z"/><path class="cls-60" d="M99.64,41.37c-2.14-.6-2.92.8-3.98,2.3-.17.24-.61.28-.71.59-.21.68-.02,1.78-.54,2.58-1.59-.84-7.78-3.15-8.48-4.09-.42-.56.03-1.08.03-1.74,0-.89-.22-2.9.22-3.51.55-.76,1.06.11,1.39.08.19-.01.46-.64,1.24-.71,2.64-.25,8.44,3.15,10.83,4.5Z"/><path class="cls-25" d="M80.73,128.21c-.87.79.25,2.48.25,3.11v5.72c0,.07-.76.68-.94,1.05-.12.26-1.22,3.35-1.23,3.54-.02.46.43.86.45,1.38.02.43-.27.92-.22,1.22.07.36.67.58.81.9.22.49.02,1.09.24,1.5.15.28,1.05,0,1.1-.04.26-.28-.34-1.95.28-2.21v5.72c-.1.04-.34-.03-.5,0-.29-.53-1.22,0-1.52-.4-.36-.47.15-1.32-.01-1.91-.1-.37-.69-.67-.85-1.16-.66-2.02-1.15-5.77-.77-7.86.11-.61.62-1.11.64-1.76.03-.61-.39-1.04-.41-1.5-.11-2.07.16-4.64.17-6.81.01-3.18.08-6.3,0-9.32-.08-3.35-2.19-1.57-3,.36-.13-1.42,1.12-5.91,2.85-5.73s1.14,2.2,1.19,3.06c.04.75.67,1.86.68,2.58.01.58-.46.83-.48,1.21-.04.68.93,1.29.93,1.49,0,.14-.47.44-.45.98.02.59.65.97.71,1.31s-.52.96-.47,1.7c.02.37.39,1.24.52,1.87Z"/><path class="cls-3" d="M15.54,101.84c-1.35-.86-1.93,1.08-3,1.85-1.38,1-3.3,1.1-3.47,3.38-.65-2.96-1.55-6.54-1.52-9.59.01-.91.92-1.96,1.01-2.99,1.19-.65,4.96-2.3,6.01-1.01.56.69.36,3.99.47,5,.12,1.11.33,2.25.49,3.36Z"/><path class="cls-27" d="M114.08,53.32c1.4,1.57,2.46,2.74,3.73,4.48.95,3.57-.54,2.74-2.12,4.22-.72.67-.96,1.86-2.36,2.25-1.8-2.74-3.94-5.36-6.22-7.71.92-.21.87-.96,1.25-1.36.13-.14,2.98-2.02,3.16-2.08.99-.29,1.51.84,2.56.2Z"/><path class="cls-18" d="M25.24,105.82c-.59-1.9-1.02-3.87-1.24-5.85-.15-1.32-.52-4.84-.2-5.92s1.29-.36,2-.46c.67-.1,1.71-.84,2.62-.9,2.66-.2,2.28.93,2.54,3.06.09.7.35,3.44.2,3.93-.23.77-5.05,5.17-5.92,6.15Z"/><path class="cls-51" d="M116.31,69.49c.67-.53,2.03-.89,2.59-1.27.35-.25.41-.75.83-.92.2-.08,2.11-.73,2.23-.75.59-.07,1.19.97,1.08-.05,1.37,2.7,2.24,4.56,3.23,7.47-1.17,2.12-4.32,3.17-6.47,3.98-.84-2.79-2.17-5.85-3.48-8.46Z"/><path class="cls-21" d="M97.15,49.58c-2.13,1.34-3.46,3.53-3.98,5.97-2.39-1.5-4.91-2.72-7.48-3.91-1.2-1.7.25-3.23.94-4.73.39-.85-.26-1.35,1.46-1.54,1.93-.2,7.24,3.06,9.05,4.21Z"/><path class="cls-61" d="M23.5,101.59c-.33-1.46-1.24-.04-2.42.19s-2.74.22-3.93.31c-.77.06-.64-.12-.61.75-.28-1.6-.66-3.42-.74-5.1-.07-1.46-.35-4.22.76-5.2s1.44-.3,2.34-.37c.77-.06,3.31-.67,3.75-.04.29.42.05,3.29.11,4.12.13,1.78.57,3.57.74,5.35Z"/><path class="cls-20" d="M119.55,80.44c-1.53,1.21-4.05,2.06-5.97,2.63-.6.18-.43.05-.74-.39-.66-2.71-1.59-5.42-2.74-7.96,2.35-.36,4.05-2.17,6.22-2.99,1.45,3.1,2.36,5.33,3.23,8.71Z"/><path class="cls-52" d="M15.54,101.84c.35,2.41.84,4.87,1.49,7.22-.55.91-1.23.72-1.97,1.14-1.97,1.12-2.99,2.02-4,4.08-.92-2.59-1.41-4.55-1.99-7.22.17-2.27,2.09-2.38,3.47-3.38,1.07-.77,1.66-2.71,3-1.85Z"/><path class="cls-37" d="M16.53,102.83c-.03-.87-.16-.69.61-.75,1.2-.09,2.79-.08,3.93-.31s2.09-1.65,2.42-.19c-.14,1.24,1.23,4.1.95,5.05-.23.79-4.56,4.64-5.31,5.65-1.36-2.96-2.06-6.25-2.61-9.45Z"/><path class="cls-50" d="M110.59,78.45c-.92.58-2.1.78-3.15,1.2-.98.39-2.09,1.27-3.31,1.29-.89-2.42-2.1-5.02-3.48-7.22,1.01-.3,1.99.06,2.99-.37.48-.21.74-.63,1-.74.8-.34,2.01-.17,2.73-1.13,1.39,2.43,2.27,4.34,3.23,6.97Z"/><path class="cls-38" d="M123.03,66.5c.11,1.02-.49-.01-1.08.05-.12.01-2.03.66-2.23.75-.41.17-.47.67-.83.92-.55.39-1.91.74-2.59,1.27-.85-1.69-1.95-3.65-2.99-5.23,1.4-.39,1.64-1.57,2.36-2.25,1.58-1.48,3.07-.65,2.12-4.22,2.07,2.83,3.64,5.58,5.23,8.71Z"/><path class="cls-18" d="M90.19,54.81c.04.86-.87.59-1.21,1.16-.56.95-.68,2.05-.97,3-.18.6-.86,1.18-1.06,1.81-.91-.51-5.09-1.82-5.5-2.34-.35-.46-.28-2.11-.23-2.77.36-5.21,3.83-3.43,7.14-1.9.68.31,1.21.71,1.82,1.04Z"/><path class="cls-36" d="M99.64,41.37c1.71.48,4.39,2.97,5.97,3.98-.82-.29-2.73-.09-3.37.48-.33.29-.39.88-.71,1.28-.29.36-.84.42-1.08.91-.37.75-.57,1.89-.05,2.56-1.99-1.22-3.9-2.64-5.97-3.73.52-.79.33-1.9.54-2.58.1-.31.54-.36.71-.59,1.05-1.5,1.84-2.9,3.98-2.3Z"/><path class="cls-19" d="M112.58,85.66c-1.18,1.98-2.15,1-3.62.76-1.23-.2-2.1.07-3.35-.76-.33-1.59-.93-3.21-1.49-4.73,1.23-.02,2.34-.9,3.31-1.29,1.05-.42,2.23-.62,3.15-1.2.97,2.63,1.52,4.42,1.99,7.22Z"/><path class="cls-46" d="M108.6,47.84c2.22,1.89,3.57,3.34,5.47,5.47-1.05.64-1.57-.5-2.56-.2-.18.05-3.03,1.94-3.16,2.08-.38.4-.33,1.15-1.25,1.36-1.3-1.34-2.83-2.74-4.23-3.98-.18-.83.61-.34,1-.61.23-.16.31-.8.6-1.14.39-.44.92-.64,1.26-.98.52-.53,1.24-1.53,1.75-2,.35-.32.73.04,1.11,0Z"/><path class="cls-3" d="M112.58,85.66c.22,1.28,1.03,5.5.62,6.47-.66,1.54-1.78.85-2.63.89-1.08.05-2.85.97-3.6.39-.7-.54-1.06-6.36-1.35-7.74,1.25.83,2.12.55,3.35.76,1.47.24,2.44,1.22,3.62-.76Z"/><path class="cls-46" d="M116.31,71.73c-2.17.82-3.87,2.63-6.22,2.99-.78-1.72-1.74-3.63-2.74-5.23,1.65-.04,1.77-1.73,2.64-2.21.54-.3,1.17-.25,1.76-.47.27-.1,1.47-.58,1.32-1.05,1.33,2.16,2.16,3.66,3.23,5.97Z"/><path class="cls-56" d="M112.58,131.7c-.14.79.4.44.87.49,4.27.42,8.52,1.32,12.82,1.25-.58.55-1.75.12-2.49.25l2.08.68c.72-.08,1.44-1.5,2.39-.93-.01.66.01,1.33,0,1.99-.97-.68-1.15.38-1.88.5-.9.15-1.52-.42-2.26-.5-1.66-.17-3.94.04-5.68.25-.47.06-.91.5-1.27.49-.52-.01-1.08-1.55-1.98-1.49-1.19.08.81,2.86,1.12,3.22-.66.01-1.33,0-1.99,0-1.41.02-3.16.2-4.48-.25.6,0,4.08.15,4.23,0,.07-.07.21-1.66.12-1.96-.06-.24-.46-.88-.63-1.14-.56-.88-1.9-1.39-1.24-2.37-.52.2-.92-.18-1.24-.25.48.23,1.02-.22,1.24-.25.08-.01.17,0,.25,0Z"/><path class="cls-5" d="M68.29,124.23c0,2.65,0,5.31,0,7.96l1.1-1.51c.03-1.9.94-1.14,2.13-1.97-.33,1.57.1,3.06.11,4.6,0,.99.07,4.25-.1,4.93-.07.27-.59.28-.76.53-.81,1.19-1.74,4.08-1.48,5.48.08.44.56.75.5,1.25-.01.13-.47.12-.51.29-.25.94.5.86.51.98.06.5-.43.8-.5,1.24-.06.41-.1,2.84-.01,3.1.16.47,1.04.19,1.49.25-.45.62-.43.35-1,.5-.12-.4-.95-.08-1.01-.39-.23-1.29.3-2.75.29-3.96-.02-1.69-.67-4.13-.76-5.98-.27-5.06-.32-10.85-.26-15.93,0-.42-.16-1.11.25-1.37Z"/><path class="cls-27" d="M94.17,67.25c2.51,2.41,4.44,4.98,6.22,7.96-.19.47-.79,0-1.09.06-.34.06-.94.88-1.42,1.06-.51.19-1.18-.17-1.72.37-1.36-2.14-2.9-4.21-4.73-5.97.5-1.84.62-3,2.74-3.48Z"/><path class="cls-48" d="M128.51,132.2c-.4.21-.24.84-.25,1.24-.96-.57-1.67.85-2.39.93l-2.08-.68c.74-.14,1.91.3,2.49-.25.06-.46-1.78-2.23-2.24-2.74-1.37-1.52-2.81-3.01-4.23-4.48-.04-.04.04-.21,0-.25l1.25-.38c-.08-2.19-1.36-1.36-1.71-1.65-.07-.06-.09-.57-.27-.83-.33-.49-1.19-1.03-.76-1.86.02-.03.65.38.74-.25,3.13,3.35,6.62,6.53,9.4,10.14.11.35.03.71.05,1.06Z"/><path class="cls-28" d="M128.51,132.2c.15,2.19-.11,4.52,0,6.72l-14.18-1c.66,0,1.33,0,1.99,0-.32-.36-2.32-3.14-1.12-3.22.9-.06,1.46,1.48,1.98,1.49.36,0,.8-.43,1.27-.49,1.74-.21,4.02-.42,5.68-.25.74.07,1.36.65,2.26.5.73-.12.9-1.18,1.88-.5.01-.66-.01-1.33,0-1.99,0-.4-.15-1.03.25-1.24Z"/><path class="cls-9" d="M105.86,56.55c-.73-.17-.36.45-.66.76s-1.1.56-1.59,1.09c-.6.65-1.24,1.93-2.03,2.33-.36.18-.98-.49-1.19.29-.99-.95-2.15-1.89-3.23-2.74.46-2.33,3.19-3.49,3.73-5.97,1.96,1.5,3.18,2.42,4.98,4.23Z"/><path class="cls-8" d="M95.41,58.04c1.67,1.21,3.26,2.54,4.73,3.98-2.48.43-3.69,3.07-4.98,4.98-1.09-1.08-3.03-2.85-4.23-3.73-.16-.7.53-.42.86-.74.52-.5,1.64-2.7,2.27-3.46.21-.25.96-1.02,1.35-1.02Z"/><path class="cls-32" d="M95.41,58.04c-.39,0-1.14.77-1.35,1.02-.63.76-1.75,2.97-2.27,3.46-.33.32-1.03.04-.86.74-1.15-.84-2.92-1.38-3.98-2.49.2-.64.87-1.21,1.06-1.81.29-.95.41-2.06.97-3,.34-.57,1.25-.3,1.21-1.16,1.83.97,3.55,2.02,5.23,3.23Z"/><path class="cls-20" d="M100.89,52.32c-.54,2.48-3.28,3.64-3.73,5.97-1.25-.97-2.64-1.9-3.98-2.74.52-2.45,1.86-4.63,3.98-5.97,1.52.96,2.39,1.71,3.73,2.74Z"/><path class="cls-58" d="M11.06,114.28c1.01-2.06,2.04-2.96,4-4.08.74-.42,1.42-.23,1.97-1.14.31,1.12,1.46,3.15,1.2,4.05-.4,1.39-4.33,4.31-5.31,5.65-.44,0-1.65-3.87-1.87-4.47Z"/><path class="cls-11" d="M105.61,45.35c1.02.36,2.15,1.78,2.99,2.49-.38.03-.76-.33-1.11,0-.51.46-1.23,1.47-1.75,2-.34.34-.87.54-1.26.98-.3.34-.37.98-.6,1.14-.39.27-1.18-.22-1,.61-.74-.66-1.85-1.15-2.49-1.99-.51-.67-.32-1.81.05-2.56.24-.49.79-.55,1.08-.91.32-.4.38-.98.71-1.28.64-.57,2.55-.78,3.37-.48Z"/><path class="cls-18" d="M104.37,84.67c.33,1.34,1.77,6.85.65,7.74-.41.32-2.44.34-2.96.18-1.34-.41-1.02-2.42-1.19-3.29-.28-1.41-.6-3.01-.97-4.38,1.34.58,2.09-.03,3.18-.21.48-.08,1.03.35,1.3-.04Z"/><path class="cls-44" d="M80.98,121.74c.01-.68-.08-1.48,0-2.12.06-.45-.08-.4.5-.37-.29.91.33,1.47.48,2.13.11.48-.02,1.05.12,1.62.16.67.83,1.2.86,1.38.05.32-1.31,1.67.27,1.83l.5-1.24c.83,2.69,2.6,6.23,3.98,8.71-1.78-.45-.53.41-.15,1.02.18.28,1.1,1.75.9,1.96-4.69-1.61-5.31-7.25-6.69-11.36-.18-.55.22-.7-.77-.58-.02-.99-.02-2,0-2.99Z"/><path class="cls-11" d="M100.39,75.21c1.31,2.21,1.83,3.33,2.74,5.72-1.43.64-3,.26-4.48.25-.65-1.54-1.59-3.07-2.49-4.48.54-.54,1.21-.18,1.72-.37.48-.18,1.08-.99,1.42-1.06.3-.06.9.41,1.09-.06Z"/><path class="cls-47" d="M63.81,142.15c.1.58.17,1.16.25,1.74-.57.17-.48.64-.51,1.11-.11,1.71.04,3.44-.34,5.13-.88.55-1.92.41-2.88.48.04-.32-.05-.7,0-1,.31-1.76.66-3.58.98-5.39.08-.48-.18-.99-.09-1.34.03-.12,1.07-2.08,1.16-2.17.21-.22.83-.24,1.06-.55,0,.69.27,1.4.37,1.99Z"/><path class="cls-16" d="M81.23,130.45c.03,2.11-.23,4.44.25,6.47.06,2.23.05,3.51.5,5.72-.74,2.09.13,5.02-.24,7.1-.05.26,0,.26-.25.36v-5.72c-.61.25-.02,1.93-.28,2.21-.05.05-.94.33-1.1.04-.22-.41-.02-1.01-.24-1.5-.14-.32-.75-.54-.81-.9-.05-.3.23-.79.22-1.22-.02-.52-.48-.92-.45-1.38,0-.19,1.11-3.28,1.23-3.54.18-.37.94-.98.94-1.05v-5.72c0-.63-1.12-2.32-.25-3.11.16.75.2,1.56.5,2.24Z"/><path class="cls-22" d="M78.24,128.71c0,2.17-.28,4.74-.17,6.81.02.46.44.9.41,1.5-.03.64-.53,1.14-.64,1.76-.38,2.09.1,5.84.77,7.86.16.49.75.79.85,1.16.16.59-.35,1.44.01,1.91.3.39,1.23-.13,1.52.4-1.54.26-2.64.45-4.23.5.03-.12.14-.24.25-.25.49-.05,1,.04,1.49,0-.06-.55-1.4-.25-1.51-.65-.18-.68.18-1.73.17-2.42-.05-3.45-.54-9.23.09-12.44.04-.2.46-.06.52-.52.18-1.36.2-4.11.23-5.62h.25Z"/><path class="cls-18" d="M87.45,62.27c-.99-.12-.59.04-.77.58-.39,1.15-1.36,2.28-1.22,3.4-.58-.34-3.58-1.62-3.68-1.79-.23-.4-.11-4.09-.3-4.92,2.11.66,4.06,1.66,5.97,2.74Z"/><path class="cls-60" d="M35.89,95.07c-.05.09-.48.2-.69.42-1.06,1.14-2.06,2.35-3.24,3.36-.15-1.4-.76-5.48.32-6.4.77-.65,3.43-1,3.66.3.06.35.07,2.11-.05,2.31Z"/><path class="cls-39" d="M90.44,64.26c1.41,1.01,2.46,1.76,3.73,2.99-2.11.48-2.23,1.65-2.74,3.48-1.02-.98-2.56-2.17-3.73-2.99-.16-.79.72-.47,1.02-.91.43-.66.51-2.42,1.72-2.57Z"/><path class="cls-32" d="M104.37,84.67c-.27.39-.83-.03-1.3.04-1.09.17-1.84.79-3.18.21-.3-1.1-.8-2.69-1.24-3.73,1.48.01,3.05.39,4.48-.25.54,1.43.85,2.15,1.24,3.73Z"/><path class="cls-4" d="M87.45,62.27c1.15.65,1.94,1.23,2.99,1.99-1.21.15-1.29,1.91-1.72,2.57-.29.45-1.18.12-1.02.91-.66-.46-1.57-1.1-2.24-1.49-.15-1.11.83-2.25,1.22-3.4.18-.55-.22-.7.77-.58Z"/><path class="cls-51" d="M36.69,141.65c.27.25-1.64,2.65-1.9,2.7-.59.11-3.16-1.92-3.82-2.33,1.9-.23,3.8-.48,5.72-.37Z"/><path class="cls-25" d="M81.23,117.51c.2.86.54,1.64.75,2.49l.49-.25c.33,1.54.8,3.77,1.24,5.23l-.5,1.24c-1.58-.16-.22-1.51-.27-1.83-.03-.19-.7-.71-.86-1.38-.14-.57-.01-1.15-.12-1.62-.15-.66-.77-1.22-.48-2.13-.58-.04-.44-.08-.5.37-.08.64.01,1.44,0,2.12l-.45-3.92.7-.31Z"/><path class="cls-5" d="M71.52,144.14c-.02,1.19-.17,2.13-.25,3.23-1.26-1.26-.39-2.15-.31-3.44.08-1.2-.18-2.28.31-3.53.43-.06.23.57.25.87.04.95.02,1.92,0,2.86Z"/><path class="cls-13" d="M71.03,150.86c-.08.26-.09.28-.25.5-.45-.06-1.33.22-1.49-.25.7-.71.2-1.92,1.12-2.48l.62,2.23Z"/><path class="cls-1" d="M54.6,150.11c-.8-.8.27-7.74-.5-9.21.09-.33.16-.66.25-1,.31.03.24.37.26.61.29,3.03-.24,6.52-.01,9.6Z"/><path class="cls-53" d="M45.65,129.46c-.48.56-.2,1.51-.25,2.24-.54-.3-.1-1.84-.25-1.99-.23-.23-2.22.2-2.74.25-.12-.32-.47-.24-.75-.25.86-.25,2.22-.44,3.11-.5.27-.02.93-.11.87.25Z"/><path class="cls-41" d="M41.66,129.71c.27.01.63-.08.75.25-4.16.37-8.3,1.01-12.44,1.49l-.25-.25c3.78-.44,8.06-1.65,11.94-1.49Z"/><path class="cls-12" d="M29.72,131.2l.25.25c-3.32.39-6.65.65-9.95,1l-.5-.25c3.39-.35,6.83-.61,10.2-1Z"/><path class="cls-12" d="M19.52,132.2l.5.25s-.19.21-.4.23c-2.93.3-5.88.61-8.81.77,0-.16-.01-.33,0-.5.17,0,.33,0,.5,0,2.44.04,5.7-.49,8.21-.75Z"/><path class="cls-6" d="M11.31,132.94c-.17,0-.33,0-.5,0,.06-.89,1.52-2.39,2.24-2.99l-1.74,2.99Z"/><path class="cls-23" d="M67.48,38.2c1.94-.36,2.78.59,3.75,2.1,4.4,6.82,3.56,21.84.34,29.11-2.64,5.97-4.88,4.7-6.95-.6-2.44-6.28-3.08-13.13-2.27-19.81.35-2.87,1.73-10.17,5.13-10.79Z"/><path class="cls-49" d="M63.81,142.15c-.1-.59-.36-1.3-.37-1.99-.23.32-.85.33-1.06.55-.08.09-1.13,2.05-1.16,2.17-.1.35.17.85.09,1.34-.31,1.82-.66,3.63-.98,5.39.07-2.61-.09-5.24-.01-7.85.06-1.85.17-7.57.65-9.06.06-.18.89-1.5.98-1.5,1.46,1.07.92,2.2,1.14,3.58.09.6.41,1.1.48,1.76.19,1.74.13,3.83.25,5.6Z"/><path class="cls-45" d="M122.78,130.21c.34.22.69.49,1,.75.23.2,1.95,2.05,1.74,2.24-2.34-.37-4.71-.5-7.07-.76-.2-.02-.35-.22-.4-.23l.99-.25c-2.23.58-1.04-1.62-.12-1.68.21-.01.52.37.79.4.66.08,1.23-1.45,1.45-1.45.09,0,.62.72.89.86s.66.09.73.13Z"/><path class="cls-45" d="M110.09,131.2c1.45-.22-.86-.84-.76-1.85.17-1.71,2.05-.72,3-.49.37.09.97-.19,1.12.08-.1.98,1.32,2.18.12,2.75-.33-.01-.67-.01-1,0-.08,0-.17-.01-.25,0l-2.24-.5Z"/><path class="cls-17" d="M126.27,133.44c-4.3.07-8.55-.83-12.82-1.25-.47-.05-1.01.3-.87-.49.33-.01.67-.01,1,0,1.29.06,3.1.35,4.48.5.05,0,.19.21.4.23,2.35.26,4.73.39,7.07.76.21-.19-1.51-2.04-1.74-2.24l.25-.25c.46.51,2.3,2.27,2.24,2.74Z"/><path class="cls-40" d="M97.15,129.71c3.01-.07,7.12.84,10.2,1.24l-.75.25c-3.46-.5-6.99-.71-10.45-1.24.17-.37.67-.24,1-.25Z"/><path class="cls-31" d="M101.88,107.56l-.25.25c-2.66-2.72-5.35-5.44-7.96-8.21.47-.11.59.26.87.49,2.48,2.09,5.05,5.1,7.34,7.47Z"/><path class="cls-29" d="M101.88,107.56c1.72,1.78,3.93,3.76,5.47,5.6.24.28.6.41.49.87-2.23-1.91-4.17-4.13-6.22-6.22l.25-.25Z"/><path class="cls-14" d="M124.03,130.7l-.25.25c-.3-.26-.66-.53-1-.75-.98-1.32-2.12-2.53-3.23-3.73l.25-.25c1.42,1.47,2.86,2.96,4.23,4.48Z"/><path class="cls-59" d="M109.76,115.61c1.04,1.01,2.64,2.67,3.57,3.77.24.28.6.41.49.87-.94-1.17-4.74-4.02-5.22-5.1-.05-.11-.06-.41.12-.37.25.39.74.55,1.03.83Z"/><path class="cls-62" d="M110.09,131.2l2.24.5c-.23.03-.76.48-1.24.25-1.41-.32-3.04-.54-4.48-.75l.75-.25c.91.12,1.81.31,2.74.25Z"/><path class="cls-10" d="M88.45,93.75c.01.18.4.5.25.87-.22,0-.39-.23-.44-.42-.04-.16-.3-1.84-.3-1.94v-3.61c.19-.14.5.5.5.62,0,1.45-.1,3.06,0,4.48Z"/><path class="cls-30" d="M93.67,99.35c-.47.11-.59-.26-.87-.49-.93-.78-2.76-2.56-3.48-3.48-.31-.4-.56-.29,0-.75l4.35,4.72Z"/><path class="cls-15" d="M97.15,129.71c-.33,0-.82-.12-1,.25l-5.22-.99h1.36s4.85.74,4.85.74Z"/><path class="cls-43" d="M119.8,125.98s-.04.21,0,.25l-.25.25c-1.15-1.25-2.39-2.43-3.48-3.73.47-.11.59.26.87.49.86.72,2.07,1.92,2.86,2.74Z"/><path class="cls-33" d="M78.24,128.71h-.25c.04-1.69.25-5.78-.44-7.15-.36-.73-.77-.66-1.41-.29-.93,2.36-2.43,4.84-2.38,7.45-.54,1.67-1.17,4.45-1.49,6.22-.5-.26-.16-.83-.07-1.19.98-4.2,1.45-10.13,3.06-13.99.8-1.93,2.92-3.72,3-.36.07,3.02,0,6.14,0,9.32Z"/><path class="cls-25" d="M81.48,136.92c-.48-2.03-.22-4.36-.25-6.47,0-.58.01-1.16,0-1.74.41.26.25.94.25,1.37.02,2.28-.06,4.57,0,6.85Z"/><path class="cls-24" d="M77.99,128.71c-.03,1.51-.05,4.25-.23,5.62-.06.47-.48.33-.52.52-.63,3.21-.14,8.99-.09,12.44.01.69-.35,1.74-.17,2.42.11.4,1.45.1,1.51.65-.49.04-1-.04-1.49,0l-.51-7.08c.21-5.35.79-11.07.23-16.4-.05-.43-.21-2.05-.84-1.9-.39.09-1.93,3.16-2.12,3.73-.05-2.61,1.45-5.09,2.38-7.45.64-.36,1.05-.44,1.41.29.68,1.37.47,5.46.44,7.15Z"/></svg>